<?xml version="1.0" encoding="utf-8"?>
<!-- Generator: Adobe Illustrator 27.5.0, SVG Export Plug-In . SVG Version: 6.00 Build 0)  -->
<svg version="1.1" id="Layer_1" xmlns="http://www.w3.org/2000/svg" xmlns:xlink="http://www.w3.org/1999/xlink" x="0px" y="0px"
	 viewBox="0 0 50 50" style="enable-background:new 0 0 50 50;" xml:space="preserve">
<g>
	<path d="M46.6,0c0.1,0,0.3,0,0.4,0c0.6,0.2,1.2,0.4,1.8,0.7c0.7,0.4,1,1.2,1.3,2c0,0.4,0,0.7,0,1.1c-0.2,1-0.9,1.7-1.6,2.4
		C42.3,12.3,36.1,18.5,30,24.6c-0.1,0.1-0.3,0.2-0.6,0.3c0.3,0.3,0.4,0.4,0.6,0.5c6.2,6.2,12.3,12.3,18.5,18.5
		c0.7,0.7,1.3,1.4,1.5,2.4c0,0.4,0,0.7,0,1.1c-0.4,1.3-1.2,2.2-2.5,2.6c-0.5,0-1,0-1.5,0c-0.9-0.3-1.6-1-2.3-1.7
		C37.6,42.2,31.5,36.1,25.4,30c-0.1-0.1-0.3-0.3-0.5-0.5c-0.1,0.2-0.3,0.4-0.4,0.5c-6.1,6.1-12.2,12.2-18.4,18.4
		C5.5,49.1,4.9,49.7,4,50c-0.5,0-1,0-1.5,0c-0.7-0.2-1.4-0.5-1.8-1.2c-0.3-0.5-0.5-1-0.7-1.5c0-0.4,0-0.7,0-1.1
		c0.2-1,0.8-1.7,1.5-2.4C7.7,37.8,13.8,31.6,20,25.5c0.1-0.1,0.3-0.2,0.6-0.4c-0.3-0.2-0.5-0.3-0.6-0.5C13.8,18.5,7.7,12.3,1.5,6.2
		C0.9,5.5,0.2,4.8,0,3.8c0-0.4,0-0.7,0-1.1c0.3-1.1,0.9-2,2.1-2.5C2.4,0.1,2.7,0.1,3,0c0.1,0,0.3,0,0.4,0c1.2,0.1,2,0.9,2.8,1.7
		c6.1,6.1,12.2,12.3,18.4,18.4c0.1,0.1,0.3,0.2,0.5,0.4c0.1-0.2,0.2-0.3,0.4-0.5c6.1-6.1,12.2-12.2,18.3-18.3
		C44.6,0.9,45.4,0.1,46.6,0z"/>
</g>
</svg>
