<?xml version="1.0" encoding="utf-8"?>
<!-- Generator: Adobe Illustrator 27.5.0, SVG Export Plug-In . SVG Version: 6.00 Build 0)  -->
<svg version="1.1" id="Layer_1" xmlns="http://www.w3.org/2000/svg" xmlns:xlink="http://www.w3.org/1999/xlink" x="0px" y="0px"
	 viewBox="0 0 50 50" style="enable-background:new 0 0 50 50;" xml:space="preserve">
<g>
	<path d="M50,25.1c-0.4,1.2-1.3,1.7-2.6,1.7c-14.9,0-29.9,0-44.8,0c-1.3,0-2.2-0.4-2.6-1.7c0-0.3,0-0.6,0-0.9
		c0.4-1.3,1.4-1.7,2.6-1.7c14.9,0,29.8,0,44.7,0c1.3,0,2.2,0.4,2.6,1.7C50,24.5,50,24.8,50,25.1z"/>
	<path d="M0,8.2c0.2-0.4,0.4-0.8,0.7-1.1C1,6.9,1.5,6.8,1.9,6.6c0.2-0.1,0.5,0,0.7,0c14.9,0,29.8,0,44.7,0c1.3,0,2.2,0.4,2.7,1.6
		c0,0.3,0,0.7,0,1c-0.2,0.3-0.4,0.8-0.7,1c-0.4,0.3-0.8,0.4-1.3,0.5c-0.2,0.1-0.4,0-0.6,0c-14.9,0-29.8,0-44.7,0
		c-1.3,0-2.2-0.4-2.7-1.6C0,8.8,0,8.5,0,8.2z"/>
	<path d="M50,41.1c-0.1,0.1-0.1,0.3-0.2,0.4c-0.4,0.7-0.9,1.1-1.7,1.2c-0.2,0-0.4,0-0.6,0c-15,0-30,0-45,0c-1.2,0-2-0.4-2.4-1.6
		c0,0,0,0,0,0c0-0.3,0-0.6,0-0.9c0.4-1.2,1.3-1.7,2.6-1.7c15,0,29.9,0,44.9,0c1.3,0,2.2,0.4,2.6,1.7C50,40.5,50,40.8,50,41.1z"/>
</g>
</svg>
